<?xml version="1.0" encoding="UTF-8" standalone="no"?>
<!-- Created with Inkscape (http://www.inkscape.org/) -->
<svg
   xmlns:dc="http://purl.org/dc/elements/1.1/"
   xmlns:cc="http://creativecommons.org/ns#"
   xmlns:rdf="http://www.w3.org/1999/02/22-rdf-syntax-ns#"
   xmlns:svg="http://www.w3.org/2000/svg"
   xmlns="http://www.w3.org/2000/svg"
   xmlns:xlink="http://www.w3.org/1999/xlink"
   xmlns:sodipodi="http://sodipodi.sourceforge.net/DTD/sodipodi-0.dtd"
   xmlns:inkscape="http://www.inkscape.org/namespaces/inkscape"
   width="744.09448819"
   height="1052.3622047"
   id="svg2"
   sodipodi:version="0.32"
   inkscape:version="0.46"
   inkscape:export-filename="/Users/clintbellanger/Desktop/flare.png"
   inkscape:export-xdpi="150"
   inkscape:export-ydpi="150"
   sodipodi:docname="flare_logo.svg"
   inkscape:output_extension="org.inkscape.output.svg.inkscape">
  <defs
     id="defs4">
    <linearGradient
       id="linearGradient3163">
      <stop
         style="stop-color:#ffc641;stop-opacity:1;"
         offset="0"
         id="stop3165" />
      <stop
         style="stop-color:#ff7f00;stop-opacity:1;"
         offset="1"
         id="stop3167" />
    </linearGradient>
    <inkscape:perspective
       sodipodi:type="inkscape:persp3d"
       inkscape:vp_x="0 : 526.18109 : 1"
       inkscape:vp_y="0 : 1000 : 0"
       inkscape:vp_z="744.09448 : 526.18109 : 1"
       inkscape:persp3d-origin="372.04724 : 350.78739 : 1"
       id="perspective10" />
    <radialGradient
       inkscape:collect="always"
       xlink:href="#linearGradient3163"
       id="radialGradient3197"
       cx="381.88892"
       cy="417.52182"
       fx="381.88892"
       fy="417.52182"
       r="166.96552"
       gradientTransform="matrix(1.0205265,0,0,1.5879962,-19.417637,-136.45979)"
       gradientUnits="userSpaceOnUse" />
  </defs>
  <sodipodi:namedview
     id="base"
     pagecolor="#ffffff"
     bordercolor="#666666"
     borderopacity="1.0"
     gridtolerance="10000"
     guidetolerance="10"
     objecttolerance="10"
     inkscape:pageopacity="0.0"
     inkscape:pageshadow="2"
     inkscape:zoom="0.48"
     inkscape:cx="495.37802"
     inkscape:cy="622.67065"
     inkscape:document-units="px"
     inkscape:current-layer="layer1"
     showgrid="false"
     inkscape:snap-global="false"
     inkscape:window-width="756"
     inkscape:window-height="713"
     inkscape:window-x="445"
     inkscape:window-y="0">
    <inkscape:grid
       type="xygrid"
       id="grid2385" />
  </sodipodi:namedview>
  <metadata
     id="metadata7">
    <rdf:RDF>
      <cc:Work
         rdf:about="">
        <dc:format>image/svg+xml</dc:format>
        <dc:type
           rdf:resource="http://purl.org/dc/dcmitype/StillImage" />
      </cc:Work>
    </rdf:RDF>
  </metadata>
  <g
     inkscape:label="Layer 1"
     inkscape:groupmode="layer"
     id="layer1">
    <path
       style="fill:url(#radialGradient3197);fill-opacity:1;fill-rule:evenodd;stroke:none;stroke-width:1px;stroke-linecap:butt;stroke-linejoin:miter;stroke-opacity:1"
       d="M 359.17216,232.83397 C 359.17216,232.83397 377.68022,314.58739 372.92693,342.15737 C 368.25214,369.27199 353.3778,403.51727 327.43538,414.00428 C 319.35244,417.27174 294.48496,400.69981 285.43034,390.3731 C 276.37573,380.04639 270.14484,351.04744 270.14484,351.04744 C 270.14484,351.04744 264.35402,376.33952 267.01863,400.74027 C 269.68323,425.14102 280.82531,460.89312 279.97455,479.63555 C 279.05459,499.90215 265.21516,522.11995 265.21516,522.11995 C 265.21516,522.11995 256.71698,498.45573 248.37169,482.66212 C 240.0264,466.86851 217.97115,445.56054 217.97115,445.56054 C 217.97115,445.56054 229.41846,471.68733 229.83954,496.10899 C 230.26062,520.53065 186.24434,572.17624 231.03255,639.31391 C 276.30719,707.18076 344.08114,699.26843 344.08114,699.26843 L 360.56903,693.20593 L 297.29638,662.20593 L 378.9385,622.20593 L 297.29638,582.20593 L 378.9385,542.20593 L 460.58062,582.20593 L 531.66667,547.36218 L 529.6894,536.08093 L 460.58062,502.20593 L 520.75979,472.73718 L 518.33604,452.92468 L 508.38591,379.76843 C 508.38591,379.76843 496.93661,404.12498 484.25482,412.67941 C 475.90857,418.30931 455.34885,420.32316 455.34885,420.32316 C 455.34885,420.32316 444.09297,360.29163 432.24509,329.0575 C 411.09164,273.2914 359.17216,232.83397 359.17216,232.83397 z M 460.58062,582.20593 L 378.9385,622.20593 L 453.88342,658.92468 L 483.47868,648.04968 L 516.6139,609.67468 L 460.58062,582.20593 z"
       id="path2383"
       sodipodi:nodetypes="csszczsczczzcccccccccccccscsccccccc" />
  </g>
</svg>
